<svg width="303" height="48" viewBox="0 0 303 48" fill="none" xmlns="http://www.w3.org/2000/svg">
<g clip-path="url(#clip0_531_2229)">
<path d="M96 16.5V10.6C96.1 8.40004 95.3 6.30004 93.7 4.80004C92.1 3.30004 90 2.50004 87.8 2.60004H82.5V8.80004H87.1C88.5 8.70004 89.6 9.80004 89.7 11.1C89.7 11.2 89.7 11.3 89.7 11.4V17.9C89.6 19.7 90.3 21.4 91.5 22.6C92.8 23.8 94.5 24.5 96.2 24.8C94.5 25 92.8 25.8 91.5 26.9C90.3 28.2 89.6 29.9 89.7 31.6V38.1C89.8 39.5 88.7 40.6 87.4 40.7C87.3 40.7 87.2 40.7 87.1 40.7H82.5V46.9H87.8C90 47 92.1 46.2 93.7 44.7C95.2 43.2 96.1 41 96 38.9V33.1C96 29.9 97.7 28 101.4 28V21.6C97.7 21.6 96 19.7 96 16.5Z" fill="white"/>
<path d="M11.6 17.9V11.4C11.5 10 12.6 8.90004 13.9 8.80004C14 8.80004 14.1 8.80004 14.2 8.80004H18.8V2.60004H13.5C11.3 2.50004 9.2 3.30004 7.6 4.80004C6.1 6.30004 5.3 8.40004 5.4 10.6V16.5C5.4 19.7 3.7 21.6 0 21.6V28C3.6 28 5.4 29.9 5.4 33.1V38.9C5.3 41.1 6.1 43.2 7.6 44.7C9.2 46.2 11.4 47 13.6 46.9H18.9V40.7H14.2C12.8 40.8 11.7 39.7 11.6 38.4C11.6 38.3 11.6 38.2 11.6 38.1V31.7C11.7 29.9 11.1 28.2 9.8 26.9C8.5 25.7 6.8 25 5.1 24.7C6.9 24.5 8.5 23.7 9.8 22.6C11.1 21.3 11.7 19.6 11.6 17.9Z" fill="white"/>
<path d="M23.3 18.9L50.7 47.8V18.9H23.3Z" fill="url(#paint0_linear_531_2229)"/>
<path d="M50.7 3.20007H31.1L23.3 18.9001H50.7V3.20007Z" fill="url(#paint1_linear_531_2229)"/>
<path d="M78 18.9001L70.2 3.20007H50.7V18.9001H78Z" fill="white"/>
<path d="M50.7 18.9V47.8L78 18.9H50.7Z" fill="url(#paint2_linear_531_2229)"/>
<path d="M112.3 37.8H121.3L123.5 26.5H115V19.2H124.7L126.2 11.2H114V4.09998H155.3V11.2H134.3L132.9 19.2H150.7V37.8H156.8V44.7H112.4V37.8H112.3ZM142.8 26.4H131.5L129.5 37.7H142.9L142.8 26.4Z" fill="white"/>
<path d="M171.9 46.6H165.1V27.4C164.8 27.9 164.3 28.6 163.6 29.6C162.9 30.6 162.2 31.3 161.9 31.8C161.7 30.6 161.6 29.1001 161.4 27.2001C161.2 24.8001 160.9 23 160.7 21.6C163.9 15.3 166.1 8.90005 167.6 1.80005L175 3.70005C174.2 7.10005 173 10.5 171.8 13.7L171.9 46.6ZM203.9 12.9H196.5L201.2 14.4C201 14.9 200.5 15.6 199.8 16.6C199.1 17.8 198.8 18.5 198.3 19H205.2V24.9H173.5V19H180.3L177.6 14.9L181.8 12.9H175.2V6.90005H186V2.00005H193.1V6.90005H203.9V12.9ZM183 46.4001H175.9V27.8H203.3V46.4001H196.2V44.4001H183V46.4001ZM183 33.9001V38.8H196.2V33.9001H183ZM187.9 17.3L184.7 19H191C192.4 16.8 193.4 14.8 194 12.9H184.5C185.7 14.4 186.8 15.9 187.9 17.3Z" fill="white"/>
<path d="M209.9 33.2H230.9L233.6 31.2H219.2V26.1H244.9V30.5L240.7 33H254.1V38.6H237.7V40.5C237.7 44.1 235.8 45.9 232.1 46.1C231.3 46.1 229.7 46.1 227.5 46.1C225.1 46.3 223.4 46.3 222.4 46.3C221.7 43.3 221.4 41.4 221 40.9C221.7 41.1 223.9 41.1 227.8 41.1C229.5 41.1 230.3 40.4 230.2 39.2V38.7H209.9V33.2ZM235.4 1.5L238.4 4.2C237.4 4.9 236.4 5.7 235.5 6.4C236.3 6.9 237.4 7.6 238.4 8.3L236.5 10.5L238.4 12.2C238.2 12.4 237.7 12.9 236.9 13.4C236.2 14.1 235.9 14.4 235.4 14.8C236.2 15.5 237.3 16.2 238.6 16.8L236.2 19.8H244.2V17.9H239V14.3H244.4V12.6H239V9.1H244.6V7.3H238.2V2.9H251.6L250.8 19.8H253.2V29.5H246.6V24.4H217V29.5H210.4V19.8H212.4L211.7 3.5C216.8 2.8 220.7 2.1 223.4 1.5L225.1 6.7C223.4 7 221.2 7.4 218.7 7.9V9.3H224.3V12.7H219.2V14.4H224.6V17.9H219.4V19.8H227C226.8 19.6 226.7 19.1 226.3 18.6C225.6 17.4 225.3 16.7 224.8 16.4C226.2 15.7 227.2 15.2 228 14.7C227.7 14.5 227.2 14 226.3 13.5C225.8 13.2 225.5 12.8 224.9 12.7L226.6 11C225.9 10.3 225.2 9.3 224.6 8.5C224.9 8.3 225.6 8 226.5 7.7C227.2 7.2 227.9 6.9 228.2 6.9C227.9 6.7 227.4 6.2 226.7 5.7C226 5.4 225.3 5 225 4.9L227.4 2.2C228.2 2.5 229.4 3.2 231 4.2C231.3 4.4 231.7 4.7 231.8 4.7C232.1 4.4 232.8 3.9 233.7 3.2C234.6 2.2 235.1 1.7 235.4 1.5ZM232.1 17.3C230.9 18.1 229.6 19 228.2 19.7H235.1C234.8 19.4 234.1 18.9 233.2 18.2C232.7 17.9 232.2 17.6 232.1 17.3ZM232.1 9.1C231.4 9.4 230.6 9.9 229.4 10.6C229.9 10.8 230.4 11.3 231.3 11.8C231.6 12 232 12.3 232.1 12.3C232.4 12.1 232.9 11.8 233.6 11.1C233.9 10.9 234.3 10.6 234.3 10.6C234.1 10.4 233.6 10.1 233.3 9.9C232.6 9.5 232.2 9.3 232.1 9.1Z" fill="white"/>
<path d="M272 21.7999C274 24.9999 275 28.4 275 32C275.2 37.4 273.5 40.2999 269.9 40.7999C269.7 40.7999 269.7 40.8 269.6 41C268.9 41.2 268.2 41.2 267.6 41.2L265.9 36.2999V46.5H260V3.49995H274.6V10.3L272 21.7999ZM265.9 10.3V33.9H267.3C268.5 34.1 269.2 32.8999 269.2 30.2999C269.2 28.2999 268.4 25.5999 266.5 22.2999L269 10.5L265.9 10.3ZM297.6 33C299.5 33.7 301.3 34.4 303 35C303 35.2 303 35.4999 302.8 35.7999C302.6 38.4999 302.3 40.4 302 41.4C301.8 44.3 299.8 45.5999 296.1 45.5999H294.6C290.5 45.7999 288.5 43.9 288.5 40.4V30.7H286.1C286.3 37.8 283.1 43.0999 276.4 46.7999C276.1 46.2999 275.2 45.3999 274 44.2999C273 42.8999 272.1 41.8999 271.6 41.5999C277.2 39.3999 279.9 35.8 279.4 30.9H275V24.5H302.3V30.7999H295V38.7999C295 39.4999 295.2 40 295.5 40H295.8C296.5 40 296.6 39.4999 296.6 38.5999C297.4 37.1999 297.6 35.4 297.6 33ZM291.7 1.69995V6.29995H302.2V16.5H299.8V21.9H277.8V16.5H275.3V6.29995H284.6V1.69995H291.7ZM281.7 12.7V15.9H295.8V12.7H281.7Z" fill="white"/>
</g>
<defs>
<linearGradient id="paint0_linear_531_2229" x1="30.49" y1="13.1735" x2="56.93" y2="39.6135" gradientUnits="userSpaceOnUse">
<stop stop-color="white"/>
<stop offset="1" stop-color="white"/>
</linearGradient>
<linearGradient id="paint1_linear_531_2229" x1="37" y1="3.20007" x2="37" y2="18.9001" gradientUnits="userSpaceOnUse">
<stop stop-color="white"/>
<stop offset="1" stop-color="white" stop-opacity="0.52"/>
</linearGradient>
<linearGradient id="paint2_linear_531_2229" x1="64.35" y1="18.9" x2="64.35" y2="47.8" gradientUnits="userSpaceOnUse">
<stop stop-color="white" stop-opacity="0.82"/>
<stop offset="1" stop-color="white" stop-opacity="0"/>
</linearGradient>
<clipPath id="clip0_531_2229">
<rect width="303" height="47.8" fill="white"/>
</clipPath>
</defs>
</svg>
