<svg width="60" height="60" viewBox="0 0 60 60" fill="none" xmlns="http://www.w3.org/2000/svg">
<path d="M15 55C13.625 55 12.4475 54.51 11.4675 53.53C10.4875 52.55 9.99834 51.3733 10 50V25C10 23.625 10.49 22.4475 11.47 21.4675C12.45 20.4875 13.6267 19.9983 15 20H17.5V15C17.5 11.5417 18.7192 8.59333 21.1575 6.155C23.5958 3.71667 26.5433 2.49834 30 2.5C33.4583 2.5 36.4067 3.71917 38.845 6.1575C41.2833 8.59584 42.5017 11.5433 42.5 15V20H45C46.375 20 47.5525 20.49 48.5325 21.47C49.5125 22.45 50.0017 23.6267 50 25V50C50 51.375 49.51 52.5525 48.53 53.5325C47.55 54.5125 46.3733 55.0017 45 55H15ZM30 42.5C31.375 42.5 32.5525 42.01 33.5325 41.03C34.5125 40.05 35.0017 38.8733 35 37.5C35 36.125 34.51 34.9475 33.53 33.9675C32.55 32.9875 31.3733 32.4983 30 32.5C28.625 32.5 27.4475 32.99 26.4675 33.97C25.4875 34.95 24.9983 36.1267 25 37.5C25 38.875 25.49 40.0525 26.47 41.0325C27.45 42.0125 28.6267 42.5017 30 42.5ZM22.5 20H37.5V15C37.5 12.9167 36.7708 11.1458 35.3125 9.6875C33.8542 8.22917 32.0833 7.5 30 7.5C27.9167 7.5 26.1458 8.22917 24.6875 9.6875C23.2292 11.1458 22.5 12.9167 22.5 15V20Z" fill="#581C87"/>
</svg>
